<svg xmlns="http://www.w3.org/2000/svg" viewBox="0 0 512 512" width="512" height="512" role="img" aria-label="favicon">
  <path fill="#C7AE16" d="M 380.98 12 L 377.82 12.18 L 374.84 14.28 L 365.54 26.04 L 361.5 30.26 L 355.18 35.87 L 339.56 47.63 L 334.82 51.85 L 328.85 57.99 L 324.99 64.14 L 323.06 69.75 L 321.65 77.13 L 321.65 87.13 L 324.28 103.28 L 329.2 119.43 L 329.73 131.02 L 327.62 142.25 L 324.11 152.26 L 311.82 180.69 L 308.84 186.31 L 304.8 191.75 L 301.46 195.44 L 294.09 201.93 L 269.69 219.49 L 262.67 225.98 L 258.11 231.42 L 254.07 238.8 L 252.31 243.19 L 244.41 274.78 L 241.08 282.16 L 237.74 287.25 L 228.62 297.43 L 220.89 303.57 L 205.97 312.87 L 174.2 327.97 L 155.77 337.98 L 148.57 343.07 L 142.25 348.51 L 137.34 355 L 135.58 360.8 L 135.58 372.21 L 138.21 386.78 L 142.78 405.38 L 145.06 417.15 L 146.11 425.92 L 146.11 435.58 L 144.36 443.3 L 142.6 445.93 L 134.18 454.36 L 129.79 461.73 L 128.03 469.63 L 128.03 474.2 L 129.08 481.39 L 131.72 488.59 L 134.7 494.21 L 139.09 499.12 L 142.07 499.82 L 142.95 498.77 L 142.78 494.73 L 140.49 487.36 L 140.32 480.34 L 141.2 475.95 L 144.01 471.04 L 146.81 467.7 L 161.91 453.13 L 166.47 444.71 L 167.53 435.58 L 166.12 425.92 L 164.02 416.44 L 163.84 408.89 L 167 391.69 L 168.93 385.37 L 171.57 379.58 L 175.25 373.79 L 179.46 369.05 L 189.65 360.45 L 200.18 355.71 L 217.91 351.32 L 226.68 350.62 L 234.06 350.97 L 237.04 351.84 L 239.85 353.42 L 244.59 357.81 L 247.75 363.61 L 248.28 369.57 L 244.59 382.21 L 243.54 389.23 L 244.24 394.5 L 247.57 401.87 L 250.56 406.26 L 253.37 409.07 L 258.98 413.11 L 267.41 417.32 L 281.8 422.94 L 287.6 427.85 L 291.99 436.63 L 294.27 445.58 L 296.02 450.15 L 299.71 456.47 L 303.75 460.68 L 309.54 464.72 L 313.58 466.65 L 323.58 469.98 L 336.22 472.09 L 345.7 474.55 L 347.98 474.55 L 349.21 473.49 L 348.33 470.16 L 346.58 468.05 L 341.49 463.49 L 332.01 456.82 L 326.39 450.32 L 322.18 441.55 L 316.56 425.57 L 312.87 418.9 L 307.26 413.28 L 290.76 400.64 L 287.25 397.31 L 284.96 393.97 L 282.86 389.06 L 281.98 385.2 L 279.7 365.54 L 275.66 349.74 L 274.43 339.73 L 274.61 330.43 L 276.54 319.72 L 283.03 299.01 L 288.83 284.96 L 291.46 280.22 L 297.25 271.8 L 303.22 265.13 L 310.42 258.98 L 326.04 248.1 L 331.66 243.19 L 337.27 236.34 L 343.24 226.33 L 351.14 208.96 L 361.5 189.65 L 366.94 176.13 L 370.45 161.74 L 370.98 147.69 L 368.7 131.72 L 364.31 117.15 L 362.9 110.48 L 362.03 102.23 L 362.38 91.69 L 363.61 84.5 L 366.41 74.84 L 377.3 50.27 L 380.81 41.32 L 382.56 34.64 L 383.79 27.97 L 383.79 16.92 L 382.92 14.11 Z"/>
</svg>
